<?xml version="1.0" encoding="iso-8859-1"?>
<!-- Generator: Adobe Illustrator 27.2.0, SVG Export Plug-In . SVG Version: 6.00 Build 0)  -->
<svg version="1.1" id="bozza-1" xmlns="http://www.w3.org/2000/svg" xmlns:xlink="http://www.w3.org/1999/xlink" x="0px" y="0px"
	 viewBox="0 0 612 792" style="enable-background:new 0 0 612 792;" xml:space="preserve">
<g>
	<g>
		<linearGradient id="SVGID_1_" gradientUnits="userSpaceOnUse" x1="178.3529" y1="265.2076" x2="332.1183" y2="521.1162">
			<stop  offset="0.014" style="stop-color:#FFFFFF;stop-opacity:0.08"/>
			<stop  offset="0.0514" style="stop-color:#EAEAEA;stop-opacity:0.115"/>
			<stop  offset="0.1581" style="stop-color:#B4B4B4;stop-opacity:0.2145"/>
			<stop  offset="0.2686" style="stop-color:#848484;stop-opacity:0.3176"/>
			<stop  offset="0.3808" style="stop-color:#5B5B5B;stop-opacity:0.4223"/>
			<stop  offset="0.4949" style="stop-color:#3A3A3A;stop-opacity:0.5287"/>
			<stop  offset="0.6116" style="stop-color:#212121;stop-opacity:0.6376"/>
			<stop  offset="0.7319" style="stop-color:#0E0E0E;stop-opacity:0.7498"/>
			<stop  offset="0.8581" style="stop-color:#040404;stop-opacity:0.8676"/>
			<stop  offset="1" style="stop-color:#000000"/>
		</linearGradient>
		<path style="fill:url(#SVGID_1_);" d="M398.685,378.021c18.967-11.889,34.427-22.567,46.242-31.957
			c23.153-18.401,32.757-32.114,29.358-41.92c-3.611-10.424-20.87-14.748-52.787-13.223c-22.418,1.073-44.071,4.771-46.49,5.193
			l-10.444,1.771l10.134,3.085c1.506,0.458,4.773,0.303,12.676-0.13c17.409-0.951,58.174-3.174,61.689,9.315
			c1.773,6.299-5.01,20.638-53.111,52.351c-9.38-40.664-35.658-77.195-75.403-98.315c-52.667-27.987-114.53-21.241-159.366,12.194
			l53.302,23.321c0.78,0.35,1.128,1.268,0.778,2.048c-0.351,0.78-1.268,1.128-2.048,0.778l-53.69-24.897
			c-7.533,5.783-14.563,12.334-20.969,19.608l212.307,92.89c-1.914,1.106-3.877,2.232-5.864,3.367l-206.774-95.885
			c-7.425,8.489-14.002,17.954-19.523,28.344c-28.489,53.613-20.991,116.758,14.018,161.768c-28.279,6.771-46.366,7.003-57.36,5.554
			c-10.382-1.37-18.009-4.705-22.058-9.645c-3.408-4.159-4.395-9.88-2.852-16.544c6.152-26.569,24.598-42.092,35.62-51.365
			c5.233-4.403,8.392-7.061,9.196-9.772l1.79-6.028l-5.44,3.153c-29.029,16.829-50.041,40.153-54.836,60.871
			c-2.556,11.036-0.587,20.919,5.694,28.58c6.436,7.85,16.887,12.778,31.064,14.648c4.246,0.561,8.797,0.839,13.652,0.838
			c15.615-0.001,34.321-2.881,55.733-8.514c10.664,11.081,23.226,20.695,37.544,28.303c69.249,36.798,154.401,13.56,195.832-51.459
			v-52.214h10.822v31.996C398.277,430.857,401.849,403.912,398.685,378.021z M319.905,311.002c-2.415,4.086-7.685,5.44-11.77,3.025
			c-4.086-2.415-5.439-7.685-3.024-11.771c2.415-4.086,7.685-5.44,11.77-3.024C320.966,301.647,322.32,306.917,319.905,311.002z
			 M259.314,381.105c0.78,0.35,1.128,1.268,0.778,2.048c-0.351,0.78-1.268,1.128-2.048,0.778l-129.1-59.866L259.314,381.105z
			 M172.624,383.641c-2.415,4.086-7.685,5.44-11.77,3.025c-4.086-2.415-5.439-7.685-3.024-11.771
			c2.415-4.086,7.685-5.44,11.77-3.024C173.685,374.286,175.039,379.556,172.624,383.641z M130.675,455.133
			c0-20.82,9.998-31.001,27.975-31.001h23.939v10.823h-23.939c-11.923,0-17.151,5.961-17.151,20.178
			c0,14.125,5.136,20.087,17.151,20.087h15.755c-10.089,3.55-19.346,6.479-27.828,8.877
			C136.219,480.243,130.675,470.641,130.675,455.133z M189.741,486.044l0.755-1.911c4.608-1.725,9.294-3.536,14.067-5.442
			l-2.898,7.353H189.741z M246.241,486.044l-10.222-27.076l-2.874-7.612l0,0l-5.707-15.118c-0.55-1.467-1.56-2.109-3.027-2.109
			c-1.468,0-2.477,0.643-3.119,2.109l-9.669,24.534c-4.878,2.054-9.611,3.992-14.197,5.812l14.052-35.574
			c2.293-5.778,6.512-7.979,13.024-7.979c6.42,0,10.64,2.201,12.841,7.979l6.028,15.863c-0.004,0.002-0.007,0.003-0.011,0.005
			l4.933,13.067c0.013-0.006,0.025-0.012,0.039-0.017l9.924,26.116H246.241z M310.721,486.044h-24.673
			c-16.418,0-22.838-8.988-22.838-21.371v-11.637v-15.529v-13.374h10.823v40.449c0,5.962,2.936,10.64,12.658,10.64h24.03V486.044z
			 M366.12,486.044h-24.673c-16.418,0-22.839-8.988-22.839-21.371v-40.462c0.048-0.026,0.097-0.052,0.145-0.078h10.678v40.449
			c0,5.962,2.935,10.64,12.657,10.64h24.031V486.044z M384.32,408.233c-0.711,1.58-2.57,2.286-4.151,1.576l-19.49-9.038
			c2.11-1.214,4.19-2.418,6.242-3.612l15.823,6.923C384.324,404.791,385.029,406.652,384.32,408.233z"/>
	</g>
	<g>
		<path d="M449.536,423.865v10.832h-31.762c-5.6,0-8.078,3.029-8.078,7.344c0,3.764,1.928,7.344,9.18,7.344h14.504
			c16.891,0,20.838,9.363,20.838,18.268c0,10.465-5.6,18.176-19.736,18.176h-34.516v-10.832h34.883c5.875,0,8.537-3.213,8.537-7.711
			c0-4.039-2.111-7.711-9.73-7.711h-14.412c-16.523,0-20.379-9.271-20.379-17.9c0-10.281,5.508-17.809,19.277-17.809H449.536z"/>
		<path d="M505.806,423.865v10.832h-18.084v51.131h-10.924v-51.131h-18.084v-10.832H505.806z"/>
		<path d="M548.308,423.865c17.992,0,27.998,10.281,27.998,31.119c0,20.746-9.914,30.844-27.998,30.844h-8.445
			c-18.084,0-27.998-10.098-27.998-30.844c0-20.838,10.006-31.119,27.998-31.119H548.308z M539.863,434.697
			c-11.934,0-17.166,6.059-17.166,20.287c0,14.137,5.141,20.012,17.166,20.012h8.445c11.934,0,17.074-5.875,17.074-20.104
			c0-14.137-5.141-20.195-17.074-20.195H539.863z"/>
	</g>
</g>
</svg>
